<svg width="22" height="23" viewBox="0 0 22 23" fill="none" xmlns="http://www.w3.org/2000/svg">
<g clip-path="url(#clip0_492_959)">
<path d="M11 7.03674C10.4139 7.03674 9.83349 7.15219 9.29198 7.37649C8.75048 7.60079 8.25845 7.92955 7.844 8.344C7.42955 8.75845 7.10079 9.25047 6.87649 9.79198C6.65219 10.3335 6.53674 10.9139 6.53674 11.5C6.53674 12.0861 6.65219 12.6665 6.87649 13.208C7.10079 13.7495 7.42955 14.2415 7.844 14.656C8.25845 15.0704 8.75048 15.3992 9.29198 15.6235C9.83349 15.8478 10.4139 15.9632 11 15.9632C12.1837 15.9632 13.319 15.493 14.156 14.656C14.993 13.819 15.4632 12.6837 15.4632 11.5C15.4632 10.3163 14.993 9.18102 14.156 8.344C13.319 7.50698 12.1837 7.03674 11 7.03674ZM7.91174 11.5C7.91174 10.6809 8.23711 9.89543 8.81627 9.31627C9.39543 8.73711 10.1809 8.41174 11 8.41174C11.819 8.41174 12.6046 8.73711 13.1837 9.31627C13.7629 9.89543 14.0882 10.6809 14.0882 11.5C14.0882 12.319 13.7629 13.1046 13.1837 13.6837C12.6046 14.2629 11.819 14.5882 11 14.5882C10.1809 14.5882 9.39543 14.2629 8.81627 13.6837C8.23711 13.1046 7.91174 12.319 7.91174 11.5Z" fill="#CCCCCC"/>
<path d="M13.4695 2.34667C12.7449 -0.11458 9.25517 -0.11458 8.53054 2.34667L8.40129 2.78529C8.35069 2.9571 8.26228 3.11541 8.14254 3.24861C8.02281 3.38181 7.87478 3.48653 7.70931 3.55509C7.54385 3.62365 7.36514 3.65431 7.18628 3.64483C7.00743 3.63535 6.83296 3.58596 6.67567 3.50029L6.27417 3.2803C4.01917 2.0538 1.55379 4.52055 2.78167 6.77417L3.00029 7.17567C3.08596 7.33296 3.13535 7.50743 3.14483 7.68628C3.15431 7.86514 3.12365 8.04385 3.05509 8.20931C2.98653 8.37478 2.88181 8.52281 2.74861 8.64254C2.61541 8.76228 2.4571 8.85069 2.28529 8.90129L1.84667 9.03054C-0.61458 9.75517 -0.61458 13.2449 1.84667 13.9695L2.28529 14.0988C2.4571 14.1494 2.61541 14.2378 2.74861 14.3575C2.88181 14.4773 2.98653 14.6253 3.05509 14.7908C3.12365 14.9562 3.15431 15.135 3.14483 15.3138C3.13535 15.4927 3.08596 15.6671 3.00029 15.8244L2.7803 16.2259C1.5538 18.4809 4.01917 20.9477 6.27417 19.7184L6.67567 19.4998C6.83296 19.4141 7.00743 19.3647 7.18628 19.3553C7.36514 19.3458 7.54385 19.3764 7.70931 19.445C7.87478 19.5136 8.02281 19.6183 8.14254 19.7515C8.26228 19.8847 8.35069 20.043 8.40129 20.2148L8.53054 20.6534C9.25517 23.1147 12.7449 23.1147 13.4695 20.6534L13.5988 20.2148C13.6494 20.043 13.7378 19.8847 13.8575 19.7515C13.9773 19.6183 14.1253 19.5136 14.2908 19.445C14.4562 19.3764 14.635 19.3458 14.8138 19.3553C14.9927 19.3647 15.1671 19.4141 15.3244 19.4998L15.7259 19.7198C17.9809 20.9477 20.4477 18.4795 19.2184 16.2259L18.9998 15.8244C18.9141 15.6671 18.8647 15.4927 18.8553 15.3138C18.8458 15.135 18.8764 14.9562 18.945 14.7908C19.0136 14.6253 19.1183 14.4773 19.2515 14.3575C19.3847 14.2378 19.543 14.1494 19.7148 14.0988L20.1534 13.9695C22.6147 13.2449 22.6147 9.75517 20.1534 9.03054L19.7148 8.90129C19.543 8.85069 19.3847 8.76228 19.2515 8.64254C19.1183 8.52281 19.0136 8.37478 18.945 8.20931C18.8764 8.04385 18.8458 7.86514 18.8553 7.68628C18.8647 7.50743 18.9141 7.33296 18.9998 7.17567L19.2198 6.77417C20.4477 4.51917 17.9795 2.05379 15.7259 3.28167L15.3244 3.50029C15.1671 3.58596 14.9927 3.63535 14.8138 3.64483C14.635 3.65431 14.4562 3.62365 14.2908 3.55509C14.1253 3.48653 13.9773 3.38181 13.8575 3.24861C13.7378 3.11541 13.6494 2.9571 13.5988 2.78529L13.4695 2.34667ZM9.84917 2.73579C10.1874 1.58767 11.8127 1.58767 12.1509 2.73579L12.2802 3.17442C12.3888 3.54304 12.5786 3.88267 12.8356 4.16841C13.0925 4.45415 13.4102 4.67876 13.7653 4.82577C14.1203 4.97278 14.5038 5.03846 14.8876 5.01801C15.2713 4.99755 15.6456 4.89147 15.983 4.70754L16.3832 4.48754C17.4337 3.91692 18.5832 5.06504 18.0112 6.11692L17.7925 6.51842C17.6089 6.85588 17.5031 7.23016 17.4828 7.61382C17.4626 7.99748 17.5285 8.38082 17.6756 8.73572C17.8227 9.09063 18.0474 9.40812 18.3332 9.66494C18.6189 9.92175 18.9585 10.1114 19.327 10.2199L19.7643 10.3492C20.9124 10.6874 20.9124 12.3127 19.7643 12.6509L19.3257 12.7802C18.9571 12.8888 18.6174 13.0786 18.3317 13.3356C18.0459 13.5925 17.8213 13.9102 17.6743 14.2653C17.5273 14.6203 17.4616 15.0038 17.4821 15.3876C17.5025 15.7713 17.6086 16.1456 17.7925 16.483L18.0125 16.8832C18.5832 17.9337 17.435 19.0832 16.3832 18.5112L15.983 18.2925C15.6455 18.1086 15.2711 18.0026 14.8873 17.9822C14.5035 17.9619 14.12 18.0277 13.7649 18.1748C13.4098 18.322 13.0921 18.5467 12.8352 18.8326C12.5783 19.1185 12.3887 19.4583 12.2802 19.827L12.1509 20.2643C11.8127 21.4124 10.1874 21.4124 9.84917 20.2643L9.71992 19.8257C9.61122 19.4572 9.42148 19.1178 9.1646 18.8322C8.90772 18.5466 8.59021 18.3221 8.23532 18.1751C7.88043 18.0281 7.49715 17.9624 7.11356 17.9827C6.72998 18.003 6.35579 18.1089 6.01842 18.2925L5.61692 18.5125C4.56642 19.0832 3.41692 17.935 3.98892 16.8832L4.20754 16.483C4.39173 16.1456 4.49801 15.7711 4.51861 15.3872C4.5392 15.0033 4.47357 14.6196 4.32654 14.2644C4.17951 13.9092 3.95481 13.5913 3.66893 13.3343C3.38304 13.0772 3.04323 12.8874 2.67442 12.7788L2.23579 12.6495C1.08767 12.3113 1.08767 10.686 2.23579 10.3478L2.67442 10.2185C3.04265 10.1098 3.38191 9.92009 3.66737 9.6633C3.95282 9.40652 4.17725 9.08916 4.32422 8.73445C4.47119 8.37973 4.53699 7.99665 4.5168 7.61322C4.49662 7.2298 4.39095 6.85574 4.20754 6.51842L3.98754 6.11692C3.41692 5.06642 4.56504 3.91692 5.61692 4.48892L6.01842 4.70754C6.35579 4.89121 6.72998 4.99708 7.11356 5.01741C7.49715 5.03773 7.88043 4.97198 8.23532 4.82499C8.59021 4.678 8.90772 4.45348 9.1646 4.16789C9.42148 3.88229 9.61122 3.54285 9.71992 3.17442L9.84917 2.73579Z" fill="#CCCCCC"/>
</g>
<defs>
<clipPath id="clip0_492_959">
<rect width="22" height="22" fill="white" transform="translate(0 0.5)"/>
</clipPath>
</defs>
</svg>