<svg width="48" height="48" viewBox="0 0 24 24" fill="none" xmlns="http://www.w3.org/2000/svg">
    <path
        d="M8.58331 4.91683H10.4166V6.75016H8.58331V4.91683ZM8.58331 8.5835H10.4166V14.0835H8.58331V8.5835ZM9.49998 0.333496C4.43998 0.333496 0.333313 4.44016 0.333313 9.50016C0.333313 14.5602 4.43998 18.6668 9.49998 18.6668C14.56 18.6668 18.6666 14.5602 18.6666 9.50016C18.6666 4.44016 14.56 0.333496 9.49998 0.333496ZM9.49998 16.8335C5.45748 16.8335 2.16665 13.5427 2.16665 9.50016C2.16665 5.45766 5.45748 2.16683 9.49998 2.16683C13.5425 2.16683 16.8333 5.45766 16.8333 9.50016C16.8333 13.5427 13.5425 16.8335 9.49998 16.8335Z"
        fill="white" />
</svg>