<svg class="landing" width="236" height="300" viewBox="0 0 236 300" fill="none"
    xmlns="http://www.w3.org/2000/svg">
    <path
        d="M95.7596 211.069C96.1049 213.274 97.4888 214.88 98.8727 216.482C102.834 216.78 106.789 217.185 110.753 217.355C123.65 217.905 136.213 215.327 148.817 213.146C161.084 211.024 173.334 210.719 185.507 213.846C186.234 214.032 186.936 214.324 187.651 214.566C191.742 214.382 193.341 213.088 194.507 209.099C196.642 201.799 196.12 194.363 195.59 186.943C195.438 184.824 196.012 183.452 197.819 182.202C205.915 176.607 210.843 168.588 213.572 159.354C218.334 143.229 217.373 127.159 212.174 111.234C211.337 108.673 209.536 106.423 209.649 103.551C203.031 98.6785 195.697 96.0312 187.419 96.2507C183.911 96.3423 180.403 96.3396 176.895 96.4312C169.556 96.6229 163.716 93.6034 158.984 88.1173C158.183 87.1867 157.266 86.3589 156.402 85.4811C151.938 87.4284 147.295 87.945 142.497 87.245C136.215 86.3283 133.801 83.4728 133.989 77.1699C134.014 76.3116 134.028 75.456 134.047 74.5977C132.892 74.3754 131.741 74.1504 130.586 73.9282C128.183 75.4171 125.351 75.3866 122.736 76.1088C116.603 77.806 110.759 80.0977 105.414 83.6033C104.955 83.9033 104.383 84.0283 103.864 84.2367C101.541 86.2895 99.2041 88.3311 96.8921 90.4006C92.4836 94.3507 89.5612 99.4924 86.0476 104.159L85.9702 104.206L59.4169 143.254L95.7596 211.069ZM150.974 149.851L191.67 187.549L150.974 149.851Z"
        fill="#4F9D69" />
    <path
        d="M30.8691 104.617H37.6366C41.5451 104.617 44.7162 107.809 44.7162 111.737V145.91C44.7162 147.873 43.1306 149.471 41.175 149.471H27.3251C25.3722 149.471 23.7839 147.876 23.7839 145.91V111.737C23.7839 107.806 26.9577 104.617 30.8635 104.617H30.8691Z"
        fill="#F6F7EB" />
    <path
        d="M32.2118 98.534H36.2971C37.5926 98.534 38.6423 99.5896 38.6423 100.892V104.784C38.6423 105.559 38.0152 106.19 37.2446 106.19H31.2671C30.4964 106.19 29.8694 105.559 29.8694 104.784V100.892C29.8694 99.5896 30.919 98.534 32.2145 98.534H32.2118Z"
        fill="#F6F7EB" />
    <path
        d="M31.7199 98.534H36.7858C37.8106 98.534 38.6393 99.3701 38.6393 100.398V100.553C38.6393 101.24 38.0868 101.795 37.4045 101.795H31.1011C30.4188 101.795 29.8664 101.24 29.8664 100.553V100.398C29.8664 99.3674 30.6978 98.534 31.7199 98.534Z"
        fill="#7EB882" />
    <path
        d="M103.726 98.534H110.493C114.402 98.534 117.573 101.726 117.573 105.654V139.826C117.573 141.79 115.987 143.387 114.032 143.387H100.182C98.229 143.387 96.6407 141.793 96.6407 139.826V105.654C96.6407 101.723 99.8146 98.534 103.72 98.534H103.726Z"
        fill="#F6F7EB" stroke="#EDEDED" stroke-width="0.67" stroke-miterlimit="10" />
    <path
        d="M105.069 92.4506H109.154C110.449 92.4506 111.499 93.5062 111.499 94.809V98.7007C111.499 99.4757 110.872 100.106 110.101 100.106H104.124C103.353 100.106 102.726 99.4757 102.726 98.7007V94.809C102.726 93.5062 103.776 92.4506 105.071 92.4506H105.069Z"
        fill="#F6F7EB" />
    <path
        d="M104.577 92.4506H109.643C110.667 92.4506 111.496 93.2867 111.496 94.3145V94.4701C111.496 95.1562 110.944 95.7118 110.261 95.7118H103.958C103.276 95.7118 102.723 95.1562 102.723 94.4701V94.3145C102.723 93.284 103.555 92.4506 104.577 92.4506Z"
        fill="#7EB882" />
    <path
        d="M44.9593 104.781H51.1633C55.2265 104.781 58.5274 108.098 58.5274 112.187V149.579C58.5274 151.623 56.8783 153.282 54.8453 153.282H41.2772C39.2442 153.282 37.5952 151.623 37.5952 149.579V112.187C37.5952 108.101 40.8933 104.781 44.9593 104.781Z"
        fill="#F0946E" />
    <path
        d="M46.1111 98.2035H50.0086C51.3538 98.2035 52.4477 99.3035 52.4477 100.656V105.02C52.4477 105.826 51.7958 106.481 50.9947 106.481H45.1277C44.3267 106.481 43.6748 105.826 43.6748 105.02V100.656C43.6748 99.3035 44.7687 98.2035 46.1139 98.2035H46.1111Z"
        fill="#F0946E" />
    <path
        d="M45.6031 98.2035H50.5226C51.5861 98.2035 52.4507 99.0729 52.4507 100.142V100.44C52.4507 101.154 51.8761 101.731 51.1662 101.731H44.9622C44.2523 101.731 43.6778 101.154 43.6778 100.44V100.142C43.6778 99.0729 44.5424 98.2035 45.6058 98.2035H45.6031Z"
        fill="#E65D40" />
    <path
        d="M61.0438 97.6534H67.8113C71.7199 97.6534 74.8909 100.845 74.8909 104.773V138.946C74.8909 140.909 73.3054 142.507 71.3497 142.507H57.4999C55.547 142.507 53.9587 140.912 53.9587 138.946V104.773C53.9587 100.842 57.1325 97.6534 61.0383 97.6534H61.0438Z"
        fill="#F6F7EB" />
    <path
        d="M62.3862 91.5701H66.4715C67.767 91.5701 68.8167 92.6256 68.8167 93.9284V97.8201C68.8167 98.5951 68.1897 99.2257 67.419 99.2257H61.4415C60.6709 99.2257 60.0438 98.5951 60.0438 97.8201V93.9284C60.0438 92.6256 61.0935 91.5701 62.389 91.5701H62.3862Z"
        fill="#F6F7EB" />
    <path
        d="M61.8946 91.5701H66.9605C67.9853 91.5701 68.814 92.4062 68.814 93.434V93.5895C68.814 94.2756 68.2616 94.8312 67.5793 94.8312H61.2759C60.5936 94.8312 60.0411 94.2756 60.0411 93.5895V93.434C60.0411 92.4034 60.8726 91.5701 61.8946 91.5701Z"
        fill="#7EB882" />
    <path
        d="M70.6315 111.492H76.8355C80.8987 111.492 84.1996 114.809 84.1996 118.898V156.29C84.1996 158.335 82.5506 159.993 80.5176 159.993H66.9495C64.9164 159.993 63.2674 158.335 63.2674 156.29V118.898C63.2674 114.812 66.5655 111.492 70.6315 111.492Z"
        fill="#F0946E" />
    <path
        d="M71.7861 104.915H75.6837C77.0289 104.915 78.1227 106.015 78.1227 107.367V111.731C78.1227 112.537 77.4708 113.193 76.6698 113.193H70.8028C70.0017 113.193 69.3499 112.537 69.3499 111.731V107.367C69.3499 106.015 70.4437 104.915 71.7889 104.915H71.7861Z"
        fill="#F0946E" />
    <path
        d="M71.2751 104.915H76.1947C77.2581 104.915 78.1227 105.784 78.1227 106.854V107.151C78.1227 107.865 77.5482 108.442 76.8383 108.442H70.6343C69.9244 108.442 69.3499 107.865 69.3499 107.151V106.854C69.3499 105.784 70.2144 104.915 71.2779 104.915H71.2751Z"
        fill="#E65D40" />
    <path
        d="M86.7186 104.365H93.4861C97.3947 104.365 100.566 107.556 100.566 111.484V145.657C100.566 147.621 98.9802 149.218 97.0245 149.218H83.1747C81.2218 149.218 79.6335 147.623 79.6335 145.657V111.484C79.6335 107.554 82.8073 104.365 86.7131 104.365H86.7186Z"
        fill="#F6F7EB" stroke="#EDEDED" stroke-width="0.67" stroke-miterlimit="10"
        stroke-linecap="round" />
    <path
        d="M88.0584 98.2812H92.1437C93.4392 98.2812 94.4889 99.3368 94.4889 100.64V104.531C94.4889 105.306 93.8618 105.937 93.0912 105.937H87.1137C86.343 105.937 85.716 105.306 85.716 104.531V100.64C85.716 99.3368 86.7657 98.2812 88.0611 98.2812H88.0584Z"
        fill="#F6F7EB" />
    <path
        d="M87.5695 98.2812H92.6354C93.6602 98.2812 94.4889 99.1174 94.4889 100.145V100.301C94.4889 100.987 93.9364 101.542 93.2541 101.542H86.9507C86.2685 101.542 85.716 100.987 85.716 100.301V100.145C85.716 99.1146 86.5474 98.2812 87.5695 98.2812Z"
        fill="#7EB882" />
    <path
        d="M113.347 107.337H119.551C123.614 107.337 126.915 110.654 126.915 114.743V152.135C126.915 154.179 125.266 155.837 123.233 155.837H109.665C107.632 155.837 105.983 154.179 105.983 152.135V114.743C105.983 110.656 109.281 107.337 113.347 107.337Z"
        fill="#F0946E" />
    <path
        d="M114.499 100.759H118.396C119.741 100.759 120.835 101.859 120.835 103.212V107.576C120.835 108.381 120.183 109.037 119.382 109.037H113.515C112.714 109.037 112.062 108.381 112.062 107.576V103.212C112.062 101.859 113.156 100.759 114.501 100.759H114.499Z"
        fill="#F0946E" />
    <path
        d="M113.988 100.759H118.907C119.971 100.759 120.835 101.629 120.835 102.698V102.995C120.835 103.709 120.261 104.287 119.551 104.287H113.347C112.637 104.287 112.062 103.709 112.062 102.995V102.698C112.062 101.629 112.927 100.759 113.99 100.759H113.988Z"
        fill="#E65D40" />
    <path
        d="M17.5303 101.254H23.7343C27.7976 101.254 31.0984 104.57 31.0984 108.659V146.051C31.0984 148.096 29.4494 149.754 27.4164 149.754H13.8483C11.8153 149.754 10.1662 148.096 10.1662 146.051V108.659C10.1662 104.573 13.4643 101.254 17.5303 101.254Z"
        fill="#F0946E" />
    <path
        d="M18.685 94.6729H22.5825C23.9277 94.6729 25.0215 95.7729 25.0215 97.1257V101.49C25.0215 102.295 24.3696 102.951 23.5686 102.951H17.7016C16.9005 102.951 16.2487 102.295 16.2487 101.49V97.1257C16.2487 95.7729 17.3425 94.6729 18.6877 94.6729H18.685Z"
        fill="#F0946E" />
    <path
        d="M18.1739 94.6729H23.0935C24.1569 94.6729 25.0215 95.5423 25.0215 96.6118V96.909C25.0215 97.6229 24.447 98.2007 23.7371 98.2007H17.5331C16.8232 98.2007 16.2487 97.6229 16.2487 96.909V96.6118C16.2487 95.5423 17.1132 94.6729 18.1767 94.6729H18.1739Z"
        fill="#E65D40" />
    <path
        d="M98.8698 216.48C102.831 216.777 106.786 217.182 110.75 217.352C123.647 217.902 136.21 215.324 148.814 213.144C161.081 211.021 173.331 210.716 185.505 213.844C186.231 214.03 186.933 214.321 187.648 214.563C193.786 225.313 198.382 236.588 200.045 249.002C201.274 258.188 201.625 267.427 202.36 276.644C202.868 283.011 203.495 289.369 204.031 295.733C204.15 297.15 204.111 298.578 204.144 300C185.154 299.986 166.163 299.969 147.17 299.956C143.347 287.525 139.469 275.108 137.036 261.963C135.539 263.152 136.204 264.341 136.42 265.266C137.762 271.019 139.022 276.805 140.715 282.458C141.61 285.444 141.546 288.194 140.754 291.08C139.944 294.019 139.196 296.975 138.42 299.922C118.733 299.919 99.0494 299.917 79.3629 299.911C83.4731 276.819 88.2988 253.891 94.6187 231.296C96.0026 226.349 97.4473 221.416 98.8643 216.477L98.8698 216.48Z"
        fill="#063E39" />
    <path
        d="M130.589 73.9282C128.185 75.4171 125.354 75.3866 122.738 76.1088C116.606 77.806 110.761 80.0977 105.416 83.6033C104.958 83.9033 104.386 84.0283 103.867 84.2366C101.469 81.6116 98.4334 79.7755 95.7181 77.5449C94.0304 76.1588 92.2626 74.8477 90.7075 73.3199C85.4261 68.1365 85.0891 62.9142 89.6937 57.0697C91.0997 55.2836 92.6465 53.5252 94.4227 52.1391C97.3451 49.8613 98.0771 46.9251 97.6489 43.5168C97.1849 39.8279 96.6325 36.1473 96.0496 32.475C95.6408 29.9055 95.5607 27.3222 95.859 24.7638C96.6297 18.136 100.685 13.9415 106.853 12.8442C114.145 11.547 120.487 8.41364 126.86 4.99972C131.1 2.72747 135.552 1.50524 140.082 4.40527C141.06 5.03027 141.696 4.38027 142.403 3.96637C152.8 -2.10313 162.932 -0.814232 172.832 5.16916C175.019 6.4914 177.218 7.93308 179.035 9.71088C184.491 15.0526 191.151 18.1165 198.142 20.7277C202.495 22.3554 206.84 24.0944 210.564 26.9972C216.911 31.9472 219.787 38.1445 217.56 46.3196C216.663 49.6168 215.641 52.9252 215.541 56.3975C215.398 61.4086 217.113 64.3142 221.839 66.0948C237.02 71.8115 238.332 88.5339 232.515 98.7535C227.477 107.609 218.127 109.526 209.655 103.551C203.034 98.6757 195.7 96.0284 187.422 96.2479C183.914 96.3395 180.406 96.3368 176.898 96.4284C169.558 96.6201 163.719 93.6006 158.987 88.1145C158.186 87.1839 157.269 86.3561 156.404 85.4783C153.639 79.7421 152.305 73.6865 152.383 67.3142C152.949 62.7836 153.482 58.2419 154.609 53.8141C155.231 51.3696 155.208 48.9252 155.231 46.4446C155.272 42.189 153.297 39.4473 149.43 37.8862C147.145 36.9639 144.914 35.9111 142.679 34.8778C138.022 32.7222 134.688 29.5194 134.445 23.0916C131.76 27.6138 127.697 28.9555 124.053 30.8944C121.548 32.2278 120.034 34.3445 119.136 36.8973C117.902 40.4167 118.54 44.0501 118.819 47.6474C118.344 51.6891 118.802 55.5725 120.785 59.1919C122.531 65.1281 125.81 70.0309 130.591 73.9254L130.589 73.9282Z"
        fill="#063E39" />
    <path
        d="M130.589 73.9282C125.807 70.0365 122.528 65.1309 120.783 59.1947C123.551 58.4475 125.575 55.8947 125.316 53.4724C124.934 49.9085 122.57 47.789 118.816 47.6502C118.54 44.0529 117.899 40.4167 119.134 36.9C120.031 34.3472 121.545 32.2333 124.05 30.8972C127.694 28.9555 131.757 27.6138 134.442 23.0943C134.685 29.5222 138.016 32.725 142.676 34.8806C144.914 35.9167 147.146 36.9667 149.427 37.8889C153.294 39.4501 155.269 42.1945 155.228 46.4474C155.203 48.9279 155.228 51.3724 154.606 53.8169C153.482 58.2447 152.949 62.7864 152.38 67.317C147.607 73.1504 141.099 74.5671 134.047 74.5977L130.586 73.9282H130.589ZM140.826 53.9613C140.856 56.9975 143.527 59.5892 146.698 59.6586C149.888 59.7281 152.819 56.6697 152.673 53.4224C152.535 50.3557 149.692 47.6113 146.712 47.6696C143.292 47.739 140.79 50.4113 140.826 53.9586V53.9613ZM127.274 44.964C124.691 45.5112 122.274 45.0723 119.971 43.7307C122.153 45.9196 124.578 46.4724 127.274 44.964Z"
        fill="#F0946E" />
    <path
        d="M134.05 74.5977C141.102 74.5671 147.61 73.1504 152.383 67.317C152.305 73.6893 153.64 79.7449 156.405 85.4811C151.941 87.4284 147.297 87.945 142.499 87.245C136.218 86.3283 133.804 83.4728 133.992 77.1699C134.017 76.3116 134.03 75.456 134.05 74.5977Z"
        fill="#E65D40" />
    <path
        d="M142.698 200.255C143.916 199.227 145.212 199.452 146.391 199.391C162.476 198.527 177.552 194.474 191.305 186.174C191.819 185.863 192.499 185.077 192.924 185.952C193.344 186.815 192.289 187.099 191.673 187.479C180.621 194.302 168.47 198.185 155.587 200.038C152.311 200.51 148.993 200.707 145.69 200.982C144.712 201.063 143.615 201.443 142.698 200.255Z"
        fill="#E8E2E4" />
    <path
        d="M148.695 152.571C148.742 150.921 150.035 150.507 150.977 149.851C152.374 148.879 153.841 147.921 155.41 147.301C163.031 144.293 165.277 138.134 165.343 130.618C165.351 129.665 165.409 128.715 165.481 127.765C165.492 127.629 165.705 127.509 165.826 127.384C167.528 133.254 165.531 142.207 160.912 145.44C157.042 148.148 152.546 149.754 148.695 152.573V152.571Z"
        fill="#E8E2E4" />
    <path
        d="M118.819 47.6501C122.573 47.789 124.937 49.9085 125.318 53.4724C125.575 55.8919 123.55 58.4475 120.785 59.1947C118.802 55.5752 118.344 51.6946 118.819 47.6529V47.6501Z"
        fill="#E65D40" />
    <path
        d="M140.825 53.9585C140.79 50.4113 143.292 47.7363 146.712 47.6696C149.689 47.6085 152.535 50.353 152.673 53.4224C152.819 56.6669 149.888 59.7281 146.698 59.6586C143.527 59.5892 140.856 56.9975 140.825 53.9613V53.9585Z"
        fill="#E65D40" />
    <path
        d="M127.183 59.7781C131.149 60.6559 134.762 60.4559 138.375 59.8114C138.795 59.7364 139.45 59.8003 139.676 60.0697C140.135 60.617 139.533 61.092 139.245 61.5503C137.864 63.7531 136.077 65.442 133.293 65.1309C130.299 64.7976 128.522 62.8309 127.186 59.7781H127.183Z"
        fill="#FDFCFA" />
    <path
        d="M127.274 44.9613C124.578 46.4668 122.153 45.914 119.97 43.7279C122.271 45.0724 124.688 45.5085 127.274 44.9613Z"
        fill="#205460" />
    <path
        d="M147.366 44.8835C145.03 46.9057 142.541 46.8557 139.966 45.1557C142.491 46.0029 144.947 45.9418 147.366 44.8835Z"
        fill="#205460" />
    <path
        d="M131.691 44.1584C131.577 46.5807 130.901 48.9752 129.73 51.0946C129.105 52.2224 128.603 53.3113 129.307 54.5586C130.401 56.4891 132.1 56.6419 134.047 56.2641"
        stroke="#E55D40" stroke-width="1.33" stroke-miterlimit="10" />
    <path
        d="M124.429 125.434H88.7546C86.6188 125.434 84.8875 127.175 84.8875 129.323V207.216C84.8875 209.363 86.6188 211.105 88.7546 211.105H124.429C126.565 211.105 128.296 209.363 128.296 207.216V129.323C128.296 127.175 126.565 125.434 124.429 125.434Z"
        fill="#205460" />
    <path
        d="M87.1552 125.257H8.97009C7.76949 125.257 6.7962 126.235 6.7962 127.443V208.918C6.7962 210.126 7.76949 211.105 8.97009 211.105H87.1552C88.3558 211.105 89.3291 210.126 89.3291 208.918V127.443C89.3291 126.235 88.3558 125.257 87.1552 125.257Z"
        fill="#7EB882" />
    <path
        d="M6.89566 170.429C6.28244 174.604 8.49223 176.452 12.2351 177.279C13.119 177.474 15.0443 177.882 13.4062 179.721C12.7875 180.415 13.6576 180.618 14.0471 180.949C15.57 182.247 15.2404 183.325 13.0582 184.182C14.594 185.246 16.6519 186.393 13.4974 187.743C13.4145 187.779 13.3013 187.843 13.2819 187.918C12.5988 190.442 10.9184 191.852 8.24086 192.146C7.86244 192.188 7.48402 192.207 7.10559 192.235C4.05332 191.81 1.70541 188.329 2.53409 185.327C2.70258 184.71 2.73849 184.254 2.36835 183.749C1.53139 182.607 1.52034 181.474 2.43741 180.357C2.76335 179.963 2.93461 179.438 2.66391 179.029C1.26622 176.924 2.45951 175.71 4.35993 174.774C2.6722 173.71 -0.291682 174.199 0.0232134 171.915C0.35192 169.526 3.03681 170.971 4.63891 170.571C5.35985 170.39 6.14709 170.468 6.90394 170.426L6.89566 170.429Z"
        fill="#F0946E" />
    <path
        d="M89.2352 182.765C89.2794 182.627 89.2932 182.468 89.2683 182.288C89.1081 181.124 87.7878 180.268 86.9619 179.577C86.2769 179.004 85.6167 178.627 85.1195 178.385C84.4372 177.746 83.777 177.079 83.0616 176.477C82.0617 175.635 80.5176 174.815 81.2496 173.357C82.0285 171.799 83.5671 172.938 84.788 173.132C87.2326 174.979 89.8705 176.41 92.9449 176.838C97.2678 177.438 101.069 179.354 104.776 181.521C103.897 186.599 104.488 191.663 104.914 196.729C98.3727 198.093 91.7765 199.021 85.1001 199.307C82.8296 199.405 80.3905 198.843 78.2194 198.23C75.297 197.405 72.3386 196.352 69.7531 194.724C69.5184 194.577 69.2753 194.41 69.1565 194.157C68.7311 193.26 70.3636 192.746 70.9299 192.529C70.1564 192.191 69.3885 191.841 68.6317 191.468C68.0047 191.16 67.3307 190.857 66.9799 190.21C66.8666 189.999 66.7976 189.741 66.8859 189.516C66.9799 189.282 67.2174 189.143 67.4522 189.063C68.0295 188.863 68.6952 188.893 69.1979 188.543C67.7533 187.36 65.6043 187.207 64.6099 185.465C64.5159 185.302 64.4303 185.124 64.4276 184.935C64.4027 183.843 66.2451 184.249 66.8417 184.377C68.3527 184.699 70.3885 185.832 71.8939 184.918C71.6978 184.488 70.9437 184.16 70.5432 183.924C70.0294 183.615 69.5018 183.304 69.1013 182.846C68.9411 182.663 68.8002 182.452 68.7477 182.21C68.5985 181.524 69.3471 180.977 69.9576 180.946C70.6509 180.915 71.3083 181.229 71.9795 181.349C72.6756 181.474 74.6174 182.102 78.584 183.085C80.5728 183.577 82.6114 183.89 84.6637 183.913C85.6112 183.924 86.5835 183.902 87.5226 183.743C88.1358 183.64 89.0197 183.449 89.2352 182.76V182.765Z"
        fill="#F0946E" />
    <path
        d="M162.316 114.706L165.829 127.382C167.213 132.376 166.155 139.471 162.854 143.471C157.968 149.398 149.908 151.726 143.311 155.065C139.085 157.204 135.154 159.99 131.163 162.54C126.677 165.407 122.249 168.371 117.907 171.457C114.614 173.796 111.372 176.204 108.19 178.693C106.894 179.707 105.179 180.618 104.579 182.182C103.98 183.746 104.353 185.635 104.361 187.313C104.372 189.26 104.383 191.21 104.383 193.157C104.383 194.779 103.651 198.177 105.778 198.824C109.59 199.985 113.742 199.702 117.672 200.032C123.661 200.535 129.652 200.81 135.663 200.682C151.581 200.341 167.611 197.554 182.306 191.249C187.098 189.193 191.678 186.738 196.103 183.971C196.147 183.943 231.029 162.118 209.649 103.551L162.313 114.706H162.316Z"
        fill="#4F9D69" />
</svg>